<?xml version="1.0" encoding="UTF-8"?><svg id="_层_2" xmlns="http://www.w3.org/2000/svg" viewBox="0 0 252.62 219.11"><defs><style>.cls-1{fill:none;stroke:#000;stroke-linecap:round;stroke-linejoin:round;stroke-width:2.5px;}</style></defs><g id="_认值"><path class="cls-1" d="M126.31,23.81c-13.18,0-25.78,5.22-35.1,14.54-9.32,9.32-14.54,21.92-14.54,35.1s5.22,25.78,14.54,35.1c9.32,9.32,21.92,14.54,35.1,14.54s25.78-5.22,35.1-14.54c9.32-9.32,14.54-21.92,14.54-35.1s-5.22-25.78-14.54-35.1c-9.32-9.32-21.92-14.54-35.1-14.54Z"/><path class="cls-1" d="M28.87,17.2c1.33-2.3,.54-5.25-1.76-6.58-2.3-1.33-5.25-.54-6.58,1.76-1.33,2.3-.54,5.25,1.76,6.58,2.3,1.33,5.25,.54,6.58-1.76Z"/><line class="cls-1" x1="28.87" y1="17.2" x2="106.51" y2="62.02"/><path class="cls-1" d="M114.85,66.84c1.33-2.3,.54-5.25-1.76-6.58-2.3-1.33-5.25-.54-6.58,1.76-1.33,2.3-.54,5.25,1.76,6.58,2.3,1.33,5.25,.54,6.58-1.76Z"/><path class="cls-1" d="M223.76,17.2c1.33,2.3,4.27,3.09,6.58,1.76,2.3-1.33,3.09-4.27,1.76-6.58-1.33-2.3-4.27-3.09-6.58-1.76-2.3,1.33-3.09,4.27-1.76,6.58Z"/><line class="cls-1" x1="223.76" y1="17.2" x2="146.11" y2="62.02"/><path class="cls-1" d="M137.78,66.84c1.33,2.3,4.27,3.09,6.58,1.76,2.3-1.33,3.09-4.27,1.76-6.58-1.33-2.3-4.27-3.09-6.58-1.76-2.3,1.33-3.09,4.27-1.76,6.58Z"/><line class="cls-1" x1="126.31" y1="185.97" x2="126.31" y2="96.32"/><path class="cls-1" d="M126.31,185.97c-2.66,0-4.81,2.16-4.81,4.81s2.16,4.81,4.81,4.81,4.81-2.16,4.81-4.81-2.16-4.81-4.81-4.81Z"/><circle class="cls-1" cx="126.31" cy="91.51" r="4.81"/><polygon class="cls-1" points="126.31 217.86 251.37 1.25 1.25 1.25 126.31 217.86"/></g></svg>