<?xml version="1.0" encoding="UTF-8"?><svg id="_层_2" xmlns="http://www.w3.org/2000/svg" viewBox="0 0 254.12 220.61"><defs><style>.cls-1{stroke-width:3px;}.cls-1,.cls-2{fill:none;stroke:#fff;stroke-linecap:round;stroke-linejoin:round;}.cls-2{stroke-width:4px;}</style></defs><g id="_认值"><path class="cls-2" d="M127.06,24.56c-13.18,0-25.78,5.22-35.1,14.54-9.32,9.32-14.54,21.92-14.54,35.1s5.22,25.78,14.54,35.1c9.32,9.32,21.92,14.54,35.1,14.54s25.78-5.22,35.1-14.54c9.32-9.32,14.54-21.92,14.54-35.1s-5.22-25.78-14.54-35.1c-9.32-9.32-21.92-14.54-35.1-14.54Z"/><path class="cls-1" d="M29.62,17.95c1.33-2.3,.54-5.25-1.76-6.58-2.3-1.33-5.25-.54-6.58,1.76-1.33,2.3-.54,5.25,1.76,6.58,2.3,1.33,5.25,.54,6.58-1.76Z"/><line class="cls-1" x1="29.62" y1="17.95" x2="107.26" y2="62.77"/><path class="cls-1" d="M115.6,67.59c1.33-2.3,.54-5.25-1.76-6.58-2.3-1.33-5.25-.54-6.58,1.76-1.33,2.3-.54,5.25,1.76,6.58,2.3,1.33,5.25,.54,6.58-1.76Z"/><path class="cls-1" d="M224.51,17.95c1.33,2.3,4.27,3.09,6.58,1.76,2.3-1.33,3.09-4.27,1.76-6.58-1.33-2.3-4.27-3.09-6.58-1.76-2.3,1.33-3.09,4.27-1.76,6.58Z"/><line class="cls-1" x1="224.51" y1="17.95" x2="146.86" y2="62.77"/><path class="cls-1" d="M138.53,67.59c1.33,2.3,4.27,3.09,6.58,1.76,2.3-1.33,3.09-4.27,1.76-6.58-1.33-2.3-4.27-3.09-6.58-1.76-2.3,1.33-3.09,4.27-1.76,6.58Z"/><line class="cls-1" x1="127.06" y1="186.72" x2="127.06" y2="97.07"/><path class="cls-1" d="M127.06,186.72c-2.66,0-4.81,2.16-4.81,4.81s2.16,4.81,4.81,4.81,4.81-2.16,4.81-4.81-2.16-4.81-4.81-4.81Z"/><circle class="cls-1" cx="127.06" cy="92.26" r="4.81"/><polygon class="cls-2" points="127.06 218.61 252.12 2 2 2 127.06 218.61"/></g></svg>